<svg xmlns="http://www.w3.org/2000/svg" xmlns:xlink="http://www.w3.org/1999/xlink" width="500" zoomAndPan="magnify" viewBox="0 0 375 374.999991" height="500" preserveAspectRatio="xMidYMid meet" version="1.0"><defs><g></g><clipPath id="a7049607ed"><path d="M 142.675781 111 L 241.675781 111 L 241.675781 176 L 142.675781 176 Z M 142.675781 111 " clip-rule="nonzero"></path></clipPath></defs><g fill="#ffffff" fill-opacity="1"><g transform="translate(86.970013, 232.304867)"><g><path d="M 0.710938 -4.511719 C 1.773438 -0.644531 6.800781 0.324219 10.085938 0.324219 C 14.050781 0.324219 19.5625 -1.03125 19.5625 -5.960938 C 19.5625 -10.796875 14.824219 -11.023438 10.410156 -11.410156 C 6.671875 -11.699219 3.449219 -11.988281 3.449219 -14.792969 C 3.449219 -17.726562 7.636719 -18.433594 9.796875 -18.433594 C 12.117188 -18.433594 15.566406 -18.175781 16.53125 -15.726562 C 17.015625 -14.632812 19.207031 -15.210938 18.722656 -16.5 C 17.371094 -20.175781 13.148438 -20.820312 9.765625 -20.820312 C 5.832031 -20.820312 0.933594 -19.078125 0.933594 -14.824219 C 0.933594 -10.023438 5.703125 -9.605469 10.152344 -9.25 C 13.695312 -8.960938 17.082031 -8.734375 17.082031 -5.929688 C 17.082031 -2.675781 12.828125 -2 10.085938 -2 C 7.507812 -2 3.933594 -2.417969 3.09375 -5.09375 C 2.835938 -6.414062 0.324219 -5.929688 0.710938 -4.511719 Z M 0.710938 -4.511719 "></path></g></g></g><g fill="#ffffff" fill-opacity="1"><g transform="translate(109.303307, 232.304867)"><g><path d="M 10.183594 -3.640625 L 3.125 -19.789062 C 2.933594 -20.269531 2.515625 -20.496094 2.0625 -20.496094 C 1.257812 -20.496094 0.417969 -19.820312 0.742188 -18.886719 L 8.960938 -0.386719 C 9.183594 0.0976562 9.605469 0.324219 10.023438 0.324219 C 10.507812 0.324219 11.023438 0.0664062 11.214844 -0.355469 L 18.304688 -14.921875 L 25.363281 -0.386719 C 25.589844 0.0976562 26.007812 0.324219 26.425781 0.324219 C 26.878906 0.324219 27.328125 0.0664062 27.554688 -0.417969 L 35.742188 -18.820312 C 36.03125 -19.882812 35.289062 -20.496094 34.515625 -20.496094 C 34.066406 -20.496094 33.582031 -20.238281 33.386719 -19.722656 L 26.457031 -3.675781 L 19.433594 -18.015625 C 19.175781 -18.464844 18.722656 -18.691406 18.242188 -18.691406 C 17.789062 -18.691406 17.371094 -18.464844 17.175781 -17.984375 Z M 10.183594 -3.640625 "></path></g></g></g><g fill="#ffffff" fill-opacity="1"><g transform="translate(148.523316, 232.304867)"><g><path d="M 10.859375 -20.820312 C 10.441406 -20.820312 9.992188 -20.625 9.796875 -20.207031 L 0.289062 -1.515625 C -0.0976562 -0.675781 0.710938 0 1.449219 0 C 1.835938 0 2.191406 -0.160156 2.417969 -0.582031 L 4.800781 -5.1875 L 16.917969 -5.1875 L 19.238281 -0.613281 C 19.464844 -0.160156 19.882812 0 20.304688 0 C 21.109375 0 21.851562 -0.644531 21.398438 -1.546875 L 11.890625 -20.207031 C 11.667969 -20.625 11.28125 -20.820312 10.859375 -20.820312 Z M 10.859375 -17.371094 L 15.921875 -7.21875 L 5.769531 -7.21875 Z M 10.859375 -17.371094 "></path></g></g></g><g fill="#ffffff" fill-opacity="1"><g transform="translate(172.500163, 232.304867)"><g><path d="M 4.769531 -6.027344 L 10.539062 -6.027344 C 16.179688 -6.027344 18.820312 -9.21875 18.820312 -13.085938 C 18.820312 -16.789062 16.210938 -20.496094 10.636719 -20.496094 L 3.640625 -20.496094 C 2.996094 -20.496094 2.449219 -20.046875 2.449219 -19.367188 L 2.449219 -1.0625 C 2.449219 -0.355469 3.03125 0 3.609375 0 C 4.191406 0 4.769531 -0.355469 4.769531 -1.097656 Z M 4.769531 -8.121094 L 4.769531 -18.402344 L 10.667969 -18.402344 C 14.40625 -18.402344 16.53125 -15.726562 16.53125 -13.085938 C 16.53125 -10.636719 14.824219 -8.121094 10.539062 -8.121094 Z M 4.769531 -8.121094 "></path></g></g></g><g fill="#ffffff" fill-opacity="1"><g transform="translate(194.640096, 232.304867)"><g></g></g></g><g fill="#ffffff" fill-opacity="1"><g transform="translate(204.952882, 232.304867)"><g><path d="M 0.710938 -4.511719 C 1.773438 -0.644531 6.800781 0.324219 10.085938 0.324219 C 14.050781 0.324219 19.5625 -1.03125 19.5625 -5.960938 C 19.5625 -10.796875 14.824219 -11.023438 10.410156 -11.410156 C 6.671875 -11.699219 3.449219 -11.988281 3.449219 -14.792969 C 3.449219 -17.726562 7.636719 -18.433594 9.796875 -18.433594 C 12.117188 -18.433594 15.566406 -18.175781 16.53125 -15.726562 C 17.015625 -14.632812 19.207031 -15.210938 18.722656 -16.5 C 17.371094 -20.175781 13.148438 -20.820312 9.765625 -20.820312 C 5.832031 -20.820312 0.933594 -19.078125 0.933594 -14.824219 C 0.933594 -10.023438 5.703125 -9.605469 10.152344 -9.25 C 13.695312 -8.960938 17.082031 -8.734375 17.082031 -5.929688 C 17.082031 -2.675781 12.828125 -2 10.085938 -2 C 7.507812 -2 3.933594 -2.417969 3.09375 -5.09375 C 2.835938 -6.414062 0.324219 -5.929688 0.710938 -4.511719 Z M 0.710938 -4.511719 "></path></g></g></g><g fill="#ffffff" fill-opacity="1"><g transform="translate(227.286174, 232.304867)"><g><path d="M 4.769531 -2.128906 L 4.769531 -9.121094 L 16.886719 -9.121094 C 18.242188 -9.121094 18.175781 -11.183594 16.886719 -11.183594 L 4.769531 -11.183594 L 4.769531 -18.433594 L 17.5 -18.433594 C 18.851562 -18.433594 18.917969 -20.496094 17.53125 -20.496094 L 3.933594 -20.496094 C 3.03125 -20.496094 2.449219 -19.851562 2.449219 -19.109375 L 2.449219 -1.417969 C 2.449219 -0.644531 3.03125 0 3.933594 0 L 17.5 0 C 19.046875 0 18.851562 -2.128906 17.5 -2.128906 Z M 4.769531 -2.128906 "></path></g></g></g><g fill="#ffffff" fill-opacity="1"><g transform="translate(249.393881, 232.304867)"><g><path d="M 3.675781 0 L 16.886719 0 C 18.53125 0 18.53125 -2.128906 16.886719 -2.128906 L 4.835938 -2.128906 L 4.835938 -19.367188 C 4.835938 -20.140625 4.253906 -20.496094 3.640625 -20.496094 C 3.0625 -20.496094 2.449219 -20.140625 2.449219 -19.367188 L 2.449219 -1.191406 C 2.449219 -0.417969 2.804688 0 3.675781 0 Z M 3.675781 0 "></path></g></g></g><g fill="#ffffff" fill-opacity="1"><g transform="translate(269.471314, 232.304867)"><g><path d="M 3.675781 0 L 16.886719 0 C 18.53125 0 18.53125 -2.128906 16.886719 -2.128906 L 4.835938 -2.128906 L 4.835938 -19.367188 C 4.835938 -20.140625 4.253906 -20.496094 3.640625 -20.496094 C 3.0625 -20.496094 2.449219 -20.140625 2.449219 -19.367188 L 2.449219 -1.191406 C 2.449219 -0.417969 2.804688 0 3.675781 0 Z M 3.675781 0 "></path></g></g></g><g clip-path="url(#a7049607ed)"><path fill="#feea3a" d="M 150.507812 168.316406 C 151.421875 172.601562 155.21875 175.699219 159.566406 175.699219 L 205.441406 175.699219 C 209.789062 175.699219 213.585938 172.601562 214.5 168.316406 L 225.265625 117.414062 C 225.527344 116.128906 226.65625 115.210938 227.957031 115.210938 L 239.464844 115.210938 C 240.59375 115.210938 241.507812 114.289062 241.507812 113.152344 C 241.507812 112.015625 240.59375 111.09375 239.464844 111.09375 L 227.957031 111.09375 C 224.734375 111.09375 221.925781 113.394531 221.25 116.566406 L 214.570312 148.203125 L 168.433594 148.203125 L 175.933594 140.652344 C 176.726562 139.851562 176.726562 138.542969 175.933594 137.746094 C 175.140625 136.945312 173.839844 136.945312 173.046875 137.746094 L 162.066406 148.808594 C 161.273438 149.605469 161.273438 150.914062 162.066406 151.710938 L 173.023438 162.75 C 173.433594 163.160156 173.9375 163.355469 174.464844 163.355469 C 174.996094 163.355469 175.523438 163.160156 175.90625 162.75 C 176.699219 161.953125 176.699219 160.644531 175.90625 159.84375 L 168.410156 152.292969 L 213.65625 152.292969 L 210.460938 167.46875 C 209.957031 169.867188 207.84375 171.585938 205.414062 171.585938 L 159.542969 171.585938 C 157.117188 171.585938 155.003906 169.84375 154.5 167.46875 L 147.023438 132.105469 C 146.855469 131.28125 147.050781 130.4375 147.578125 129.78125 C 148.105469 129.128906 148.898438 128.742188 149.714844 128.742188 L 201.066406 128.742188 L 193.570312 136.292969 C 192.777344 137.09375 192.777344 138.398438 193.570312 139.199219 C 193.976562 139.609375 194.484375 139.804688 195.011719 139.804688 C 195.539062 139.804688 196.070312 139.609375 196.453125 139.199219 L 207.433594 128.136719 C 207.820312 127.75 208.035156 127.214844 208.035156 126.683594 C 208.035156 126.152344 207.820312 125.617188 207.433594 125.230469 L 196.453125 114.167969 C 195.660156 113.371094 194.363281 113.371094 193.570312 114.167969 C 192.777344 114.96875 192.777344 116.273438 193.570312 117.074219 L 201.066406 124.625 L 149.742188 124.625 C 147.675781 124.625 145.726562 125.570312 144.40625 127.191406 C 143.085938 128.8125 142.605469 130.917969 143.035156 132.976562 Z M 150.507812 168.316406 " fill-opacity="1" fill-rule="nonzero"></path></g><path fill="#ff66c4" d="M 154.90625 190.128906 C 154.90625 195.5 159.257812 199.882812 164.589844 199.882812 C 169.925781 199.882812 174.273438 195.5 174.273438 190.128906 C 174.273438 184.753906 169.925781 180.371094 164.589844 180.371094 C 159.257812 180.371094 154.90625 184.753906 154.90625 190.128906 Z M 170.1875 190.128906 C 170.1875 193.226562 167.691406 195.765625 164.589844 195.765625 C 161.492188 195.765625 158.992188 193.25 158.992188 190.128906 C 158.992188 187.003906 161.492188 184.488281 164.589844 184.488281 C 167.691406 184.488281 170.1875 187.027344 170.1875 190.128906 Z M 170.1875 190.128906 " fill-opacity="1" fill-rule="nonzero"></path><path fill="#ff66c4" d="M 190.6875 190.128906 C 190.6875 195.5 195.035156 199.882812 200.371094 199.882812 C 205.703125 199.882812 210.054688 195.5 210.054688 190.128906 C 210.054688 184.753906 205.703125 180.371094 200.371094 180.371094 C 195.035156 180.371094 190.6875 184.753906 190.6875 190.128906 Z M 205.96875 190.128906 C 205.96875 193.226562 203.46875 195.765625 200.371094 195.765625 C 197.269531 195.765625 194.769531 193.25 194.769531 190.128906 C 194.769531 187.003906 197.269531 184.488281 200.371094 184.488281 C 203.46875 184.488281 205.96875 187.027344 205.96875 190.128906 Z M 205.96875 190.128906 " fill-opacity="1" fill-rule="nonzero"></path></svg>