<?xml version="1.0" encoding="UTF-8"?>
<svg width="700pt" height="700pt" version="1.1" viewBox="0 0 700 700" xmlns="http://www.w3.org/2000/svg">
 <path d="m490 274.93v13.824c0 4.832 3.918 8.75 8.75 8.75s8.75-3.918 8.75-8.75v-157.5c0-11.602-4.6094-22.73-12.812-30.938-8.207-8.2031-19.336-12.812-30.938-12.812h-297.5c-11.602 0-22.73 4.6094-30.938 12.812-8.2031 8.207-12.812 19.336-12.812 30.938v227.5c0 11.602 4.6094 22.73 12.812 30.938 8.207 8.2031 19.336 12.812 30.938 12.812h227.5c4.832 0 8.75-3.918 8.75-8.75s-3.918-8.75-8.75-8.75h-227.5c-6.9609 0-13.641-2.7656-18.562-7.6875s-7.6875-11.602-7.6875-18.562v-13.824l113.4-114.1 55.301 55.301 43.75 43.574c3.3828 3.3828 8.8672 3.3828 12.25 0 3.3828-3.3828 3.3828-8.8672 0-12.25l-37.273-37.449 83.648-84zm-78.926-99.926c-2.3203-0.027344-4.543 0.92578-6.125 2.625l-89.949 89.949-55.477-55.301c-1.5781-1.6992-3.8047-2.6523-6.125-2.625-2.3633 0.007812-4.6289 0.95312-6.2969 2.625l-107.1 107.8v-188.82c0-6.9609 2.7656-13.641 7.6875-18.562s11.602-7.6875 18.562-7.6875h297.5c6.9609 0 13.641 2.7656 18.562 7.6875s7.6875 11.602 7.6875 18.562v118.82l-72.801-72.625c-1.5781-1.6992-3.8047-2.6523-6.125-2.625zm-61.074 0c0 4.6406-1.8438 9.0938-5.125 12.375s-7.7344 5.125-12.375 5.125-9.0938-1.8438-12.375-5.125-5.125-7.7344-5.125-12.375 1.8438-9.0938 5.125-12.375 7.7344-5.125 12.375-5.125 9.0938 1.8438 12.375 5.125 5.125 7.7344 5.125 12.375zm148.75 140c-20.887 0-40.918 8.2969-55.684 23.066-14.77 14.766-23.066 34.797-23.066 55.684s8.2969 40.918 23.066 55.684c14.766 14.77 34.797 23.066 55.684 23.066s40.918-8.2969 55.684-23.066c14.77-14.766 23.066-34.797 23.066-55.684-0.046875-20.871-8.3594-40.875-23.117-55.633-14.758-14.758-34.762-23.07-55.633-23.117zm0 140c-16.246 0-31.824-6.4531-43.309-17.941-11.488-11.484-17.941-27.062-17.941-43.309s6.4531-31.824 17.941-43.309c11.484-11.488 27.062-17.941 43.309-17.941s31.824 6.4531 43.309 17.941c11.488 11.484 17.941 27.062 17.941 43.309s-6.4531 31.824-17.941 43.309c-11.484 11.488-27.062 17.941-43.309 17.941zm23.625-84.875c3.3828 3.3828 3.3828 8.8672 0 12.25s-8.8672 3.3828-12.25 0l-2.625-2.4492v48.824c0 4.832-3.918 8.75-8.75 8.75s-8.75-3.918-8.75-8.75v-48.824l-2.625 2.4492c-3.3828 3.3828-8.8672 3.3828-12.25 0s-3.3828-8.8672 0-12.25l17.5-17.5c0.73828-0.88672 1.707-1.5508 2.8008-1.9258 2.1289-0.875 4.5195-0.875 6.6484 0 1.0938 0.375 2.0625 1.0391 2.8008 1.9258z"/>
</svg>
