<svg xmlns="http://www.w3.org/2000/svg" xmlns:xlink="http://www.w3.org/1999/xlink" width="500" zoomAndPan="magnify" viewBox="0 0 375 374.999991" height="500" preserveAspectRatio="xMidYMid meet" version="1.0"><defs><clipPath id="8abc90be99"><path d="M 150 112.5 L 225 112.5 L 225 222 L 150 222 Z M 150 112.5 " clip-rule="nonzero"></path></clipPath><clipPath id="ebd4a86312"><path d="M 116 188 L 259 188 L 259 262.5 L 116 262.5 Z M 116 188 " clip-rule="nonzero"></path></clipPath><clipPath id="377c741af6"><path d="M 185 188 L 190 188 L 190 262.5 L 185 262.5 Z M 185 188 " clip-rule="nonzero"></path></clipPath><clipPath id="5291fb6587"><path d="M 150 112.5 L 197 112.5 L 197 146 L 150 146 Z M 150 112.5 " clip-rule="nonzero"></path></clipPath><clipPath id="f7c76d3fc9"><path d="M 177 112.5 L 225 112.5 L 225 160 L 177 160 Z M 177 112.5 " clip-rule="nonzero"></path></clipPath></defs><path fill="#353333" d="M 223.253906 219.984375 L 151.785156 219.984375 L 151.785156 150.082031 C 151.785156 130.359375 167.785156 114.367188 187.519531 114.367188 C 207.253906 114.367188 223.253906 130.359375 223.253906 150.082031 Z M 223.253906 219.984375 " fill-opacity="1" fill-rule="nonzero"></path><g clip-path="url(#8abc90be99)"><path fill="#353333" d="M 223.253906 221.523438 L 151.785156 221.523438 C 150.9375 221.523438 150.246094 220.835938 150.246094 219.984375 L 150.246094 150.082031 C 150.246094 129.542969 166.96875 112.828125 187.519531 112.828125 C 208.070312 112.828125 224.792969 129.542969 224.792969 150.082031 L 224.792969 219.984375 C 224.792969 220.835938 224.101562 221.523438 223.253906 221.523438 Z M 153.324219 218.445312 L 221.714844 218.445312 L 221.714844 150.082031 C 221.714844 131.238281 206.375 115.90625 187.519531 115.90625 C 168.664062 115.90625 153.324219 131.238281 153.324219 150.082031 Z M 153.324219 218.445312 " fill-opacity="1" fill-rule="nonzero"></path></g><path fill="#fbd891" d="M 159.710938 165.851562 C 156.15625 165.851562 153.277344 162.972656 153.277344 159.421875 L 153.277344 155.601562 C 153.277344 152.050781 156.15625 149.171875 159.710938 149.171875 C 163.261719 149.171875 166.144531 152.050781 166.144531 155.601562 L 166.144531 159.421875 C 166.144531 162.972656 163.261719 165.851562 159.710938 165.851562 Z M 159.710938 165.851562 " fill-opacity="1" fill-rule="nonzero"></path><path fill="#353333" d="M 159.710938 167.390625 C 155.3125 167.390625 151.738281 163.8125 151.738281 159.417969 L 151.738281 155.601562 C 151.738281 151.207031 155.3125 147.632812 159.710938 147.632812 C 164.105469 147.632812 167.683594 151.207031 167.683594 155.601562 L 167.683594 159.417969 C 167.683594 163.8125 164.105469 167.390625 159.710938 167.390625 Z M 159.710938 150.710938 C 157.011719 150.710938 154.816406 152.90625 154.816406 155.601562 L 154.816406 159.417969 C 154.816406 162.117188 157.011719 164.3125 159.710938 164.3125 C 162.40625 164.3125 164.605469 162.117188 164.605469 159.417969 L 164.605469 155.601562 C 164.605469 152.90625 162.40625 150.710938 159.710938 150.710938 Z M 159.710938 150.710938 " fill-opacity="1" fill-rule="nonzero"></path><path fill="#fbd891" d="M 215.328125 165.851562 C 218.882812 165.851562 221.761719 162.972656 221.761719 159.421875 L 221.761719 155.601562 C 221.761719 152.050781 218.882812 149.171875 215.328125 149.171875 C 211.777344 149.171875 208.894531 152.050781 208.894531 155.601562 L 208.894531 159.421875 C 208.894531 162.972656 211.777344 165.851562 215.328125 165.851562 Z M 215.328125 165.851562 " fill-opacity="1" fill-rule="nonzero"></path><path fill="#353333" d="M 215.328125 167.390625 C 210.933594 167.390625 207.355469 163.8125 207.355469 159.417969 L 207.355469 155.601562 C 207.355469 151.207031 210.933594 147.632812 215.328125 147.632812 C 219.726562 147.632812 223.300781 151.207031 223.300781 155.601562 L 223.300781 159.417969 C 223.300781 163.8125 219.726562 167.390625 215.328125 167.390625 Z M 215.328125 150.710938 C 212.628906 150.710938 210.433594 152.90625 210.433594 155.601562 L 210.433594 159.417969 C 210.433594 162.117188 212.628906 164.3125 215.328125 164.3125 C 218.027344 164.3125 220.222656 162.117188 220.222656 159.417969 L 220.222656 155.601562 C 220.222656 152.90625 218.027344 150.710938 215.328125 150.710938 Z M 215.328125 150.710938 " fill-opacity="1" fill-rule="nonzero"></path><path fill="#fbd891" d="M 215.328125 139.75 L 215.328125 155.632812 C 215.328125 170.984375 202.878906 183.429688 187.519531 183.429688 C 172.160156 183.429688 159.710938 170.984375 159.710938 155.632812 L 159.710938 139.75 " fill-opacity="1" fill-rule="nonzero"></path><path fill="#353333" d="M 187.519531 184.96875 C 171.335938 184.96875 158.167969 171.808594 158.167969 155.632812 L 158.167969 139.75 C 158.167969 138.898438 158.859375 138.210938 159.710938 138.210938 C 160.558594 138.210938 161.25 138.898438 161.25 139.75 L 161.25 155.632812 C 161.25 170.113281 173.035156 181.890625 187.519531 181.890625 C 202.003906 181.890625 213.789062 170.113281 213.789062 155.632812 L 213.789062 139.75 C 213.789062 138.898438 214.480469 138.210938 215.328125 138.210938 C 216.179688 138.210938 216.867188 138.898438 216.867188 139.75 L 216.867188 155.632812 C 216.867188 171.808594 203.703125 184.96875 187.519531 184.96875 Z M 187.519531 184.96875 " fill-opacity="1" fill-rule="nonzero"></path><path fill="#e967a5" d="M 187.519531 190.476562 C 152.929688 190.476562 124.160156 215.367188 118.152344 248.203125 C 116.941406 254.835938 122.007812 260.960938 128.753906 260.960938 L 246.285156 260.960938 C 253.03125 260.960938 258.097656 254.835938 256.886719 248.203125 C 250.878906 215.367188 222.105469 190.476562 187.519531 190.476562 Z M 187.519531 190.476562 " fill-opacity="1" fill-rule="nonzero"></path><g clip-path="url(#ebd4a86312)"><path fill="#353333" d="M 246.285156 262.5 L 128.753906 262.5 C 125.09375 262.5 121.648438 260.886719 119.304688 258.078125 C 116.949219 255.25 115.976562 251.550781 116.640625 247.929688 C 122.890625 213.746094 152.699219 188.9375 187.519531 188.9375 C 222.339844 188.9375 252.148438 213.746094 258.398438 247.929688 C 259.0625 251.550781 258.089844 255.25 255.734375 258.078125 C 253.390625 260.886719 249.945312 262.5 246.285156 262.5 Z M 187.519531 192.015625 C 154.1875 192.015625 125.652344 215.761719 119.667969 248.480469 C 119.171875 251.207031 119.898438 253.984375 121.667969 256.105469 C 123.429688 258.214844 126.011719 259.421875 128.753906 259.421875 L 246.285156 259.421875 C 249.027344 259.421875 251.609375 258.214844 253.371094 256.105469 C 255.140625 253.984375 255.867188 251.203125 255.371094 248.480469 C 249.386719 215.761719 220.851562 192.015625 187.519531 192.015625 Z M 187.519531 192.015625 " fill-opacity="1" fill-rule="nonzero"></path></g><path fill="#f9b2dc" d="M 161.542969 195.417969 L 170.414062 207.949219 L 187.519531 190.476562 C 187.519531 190.476562 172.5 190.476562 161.542969 195.417969 Z M 161.542969 195.417969 " fill-opacity="1" fill-rule="nonzero"></path><path fill="#353333" d="M 170.414062 209.488281 C 170.371094 209.488281 170.332031 209.488281 170.289062 209.484375 C 169.835938 209.445312 169.421875 209.210938 169.15625 208.839844 L 160.289062 196.308594 C 160.023438 195.929688 159.9375 195.457031 160.058594 195.015625 C 160.179688 194.570312 160.492188 194.203125 160.910156 194.015625 C 172.039062 188.996094 186.890625 188.9375 187.519531 188.9375 C 188.136719 188.9375 188.699219 189.308594 188.9375 189.882812 C 189.179688 190.453125 189.050781 191.109375 188.621094 191.554688 L 171.515625 209.027344 C 171.222656 209.324219 170.828125 209.488281 170.414062 209.488281 Z M 163.910156 196.09375 L 170.605469 205.554688 L 183.703125 192.175781 C 179.015625 192.484375 170.828125 193.398438 163.910156 196.09375 Z M 163.910156 196.09375 " fill-opacity="1" fill-rule="nonzero"></path><path fill="#f9b2dc" d="M 213.492188 195.417969 L 204.625 207.949219 L 187.519531 190.476562 C 187.519531 190.476562 202.539062 190.476562 213.492188 195.417969 Z M 213.492188 195.417969 " fill-opacity="1" fill-rule="nonzero"></path><path fill="#353333" d="M 204.625 209.488281 C 204.210938 209.488281 203.816406 209.324219 203.523438 209.027344 L 186.417969 191.554688 C 185.984375 191.109375 185.859375 190.453125 186.101562 189.882812 C 186.339844 189.308594 186.898438 188.9375 187.519531 188.9375 C 188.144531 188.9375 203 188.996094 214.128906 194.015625 C 214.546875 194.203125 214.859375 194.570312 214.980469 195.015625 C 215.101562 195.457031 215.015625 195.929688 214.75 196.308594 L 205.882812 208.839844 C 205.617188 209.210938 205.203125 209.445312 204.746094 209.484375 C 204.707031 209.488281 204.664062 209.488281 204.625 209.488281 Z M 191.335938 192.175781 L 204.433594 205.554688 L 211.128906 196.09375 C 204.210938 193.398438 196.023438 192.484375 191.335938 192.175781 Z M 191.335938 192.175781 " fill-opacity="1" fill-rule="nonzero"></path><g clip-path="url(#377c741af6)"><path fill="#353333" d="M 187.519531 262.5 C 186.667969 262.5 185.980469 261.808594 185.980469 260.960938 L 185.980469 190.476562 C 185.980469 189.628906 186.667969 188.9375 187.519531 188.9375 C 188.371094 188.9375 189.058594 189.628906 189.058594 190.476562 L 189.058594 260.960938 C 189.058594 261.808594 188.371094 262.5 187.519531 262.5 Z M 187.519531 262.5 " fill-opacity="1" fill-rule="nonzero"></path></g><path fill="#353333" d="M 200.707031 226.835938 C 200.707031 227.320312 200.613281 227.785156 200.429688 228.230469 C 200.242188 228.679688 199.980469 229.074219 199.636719 229.414062 C 199.296875 229.757812 198.902344 230.019531 198.453125 230.207031 C 198.007812 230.390625 197.539062 230.484375 197.058594 230.484375 C 196.574219 230.484375 196.105469 230.390625 195.660156 230.207031 C 195.210938 230.019531 194.816406 229.757812 194.476562 229.414062 C 194.132812 229.074219 193.871094 228.679688 193.683594 228.230469 C 193.5 227.785156 193.40625 227.320312 193.40625 226.835938 C 193.40625 226.351562 193.5 225.886719 193.683594 225.441406 C 193.871094 224.992188 194.132812 224.597656 194.476562 224.257812 C 194.816406 223.914062 195.210938 223.648438 195.660156 223.464844 C 196.105469 223.28125 196.574219 223.1875 197.058594 223.1875 C 197.539062 223.1875 198.007812 223.28125 198.453125 223.464844 C 198.902344 223.648438 199.296875 223.914062 199.636719 224.257812 C 199.980469 224.597656 200.242188 224.992188 200.429688 225.441406 C 200.613281 225.886719 200.707031 226.351562 200.707031 226.835938 Z M 200.707031 226.835938 " fill-opacity="1" fill-rule="nonzero"></path><path fill="#353333" d="M 200.707031 246.394531 C 200.707031 246.875 200.613281 247.34375 200.429688 247.789062 C 200.242188 248.234375 199.980469 248.628906 199.636719 248.972656 C 199.296875 249.316406 198.902344 249.578125 198.453125 249.761719 C 198.007812 249.949219 197.539062 250.042969 197.058594 250.042969 C 196.574219 250.042969 196.105469 249.949219 195.660156 249.761719 C 195.210938 249.578125 194.816406 249.316406 194.476562 248.972656 C 194.132812 248.628906 193.871094 248.234375 193.683594 247.789062 C 193.5 247.34375 193.40625 246.875 193.40625 246.394531 C 193.40625 245.910156 193.5 245.445312 193.683594 244.996094 C 193.871094 244.550781 194.132812 244.15625 194.476562 243.8125 C 194.816406 243.472656 195.210938 243.207031 195.660156 243.023438 C 196.105469 242.835938 196.574219 242.746094 197.058594 242.746094 C 197.539062 242.746094 198.007812 242.835938 198.453125 243.023438 C 198.902344 243.207031 199.296875 243.472656 199.636719 243.8125 C 199.980469 244.15625 200.242188 244.550781 200.429688 244.996094 C 200.613281 245.445312 200.707031 245.910156 200.707031 246.394531 Z M 200.707031 246.394531 " fill-opacity="1" fill-rule="nonzero"></path><path fill="#353333" d="M 187.519531 114.367188 C 184.695312 114.367188 181.953125 114.707031 179.316406 115.324219 C 165.785156 118.503906 155.222656 129.355469 152.484375 143.046875 C 161.195312 145.03125 170.65625 143.777344 178.90625 138.792969 C 179.980469 138.144531 181.007812 137.445312 181.988281 136.703125 C 189.148438 131.300781 193.769531 123.589844 195.445312 115.261719 C 192.894531 114.683594 190.246094 114.367188 187.519531 114.367188 Z M 187.519531 114.367188 " fill-opacity="1" fill-rule="nonzero"></path><g clip-path="url(#5291fb6587)"><path fill="#353333" d="M 160.484375 145.488281 C 157.707031 145.488281 154.910156 145.175781 152.140625 144.546875 C 151.328125 144.359375 150.8125 143.5625 150.976562 142.746094 C 153.820312 128.503906 164.808594 117.152344 178.964844 113.828125 C 184.5 112.527344 190.234375 112.503906 195.785156 113.761719 C 196.601562 113.945312 197.121094 114.746094 196.957031 115.566406 C 195.15625 124.511719 190.167969 132.457031 182.914062 137.933594 C 181.886719 138.710938 180.804688 139.441406 179.703125 140.109375 C 173.828125 143.660156 167.207031 145.488281 160.484375 145.488281 Z M 154.328125 141.851562 C 162.539062 143.347656 170.933594 141.8125 178.109375 137.476562 C 179.121094 136.863281 180.113281 136.191406 181.0625 135.476562 C 187.304688 130.761719 191.71875 124.050781 193.601562 116.457031 C 188.972656 115.621094 184.253906 115.746094 179.667969 116.824219 C 167.183594 119.753906 157.386719 129.496094 154.328125 141.851562 Z M 154.328125 141.851562 " fill-opacity="1" fill-rule="nonzero"></path></g><path fill="#353333" d="M 195.445312 115.261719 C 192.894531 114.683594 190.246094 114.367188 187.519531 114.367188 C 184.695312 114.367188 181.953125 114.707031 179.316406 115.324219 C 177.984375 122.566406 178.9375 130.050781 181.988281 136.703125 C 184.53125 142.253906 188.523438 147.226562 193.875 150.996094 C 202.75 157.246094 213.492188 158.882812 223.253906 156.40625 L 223.253906 150.082031 C 223.253906 133.082031 211.363281 118.867188 195.445312 115.261719 Z M 195.445312 115.261719 " fill-opacity="1" fill-rule="nonzero"></path><g clip-path="url(#f7c76d3fc9)"><path fill="#353333" d="M 214.433594 159.046875 C 206.824219 159.046875 199.328125 156.71875 192.988281 152.253906 C 187.609375 148.464844 183.324219 143.3125 180.589844 137.347656 C 177.375 130.332031 176.410156 122.621094 177.800781 115.046875 C 177.914062 114.445312 178.367188 113.964844 178.964844 113.828125 C 184.5 112.527344 190.234375 112.503906 195.785156 113.761719 C 212.863281 117.628906 224.792969 132.566406 224.792969 150.082031 L 224.792969 156.40625 C 224.792969 157.113281 224.3125 157.726562 223.628906 157.898438 C 220.589844 158.667969 217.503906 159.046875 214.433594 159.046875 Z M 180.660156 116.605469 C 179.644531 123.230469 180.578125 129.9375 183.386719 136.0625 C 185.894531 141.535156 189.828125 146.265625 194.761719 149.738281 C 202.597656 155.257812 212.359375 157.21875 221.714844 155.1875 L 221.714844 150.082031 C 221.714844 134.011719 210.773438 120.308594 195.105469 116.761719 C 190.339844 115.683594 185.4375 115.628906 180.660156 116.605469 Z M 180.660156 116.605469 " fill-opacity="1" fill-rule="nonzero"></path></g></svg>